<svg xmlns="http://www.w3.org/2000/svg" xmlns:xlink="http://www.w3.org/1999/xlink" width="82" height="29" viewBox="0 0 82 29">
    <defs>
        <path id="a" d="M0 .116h15.424v22.803H0z"/>
        <path id="c" d="M.023.152h22.955v23.229H.023z"/>
        <path id="e" d="M.012.163h25.11V14.35H.013z"/>
    </defs>
    <g fill="none" fill-rule="evenodd">
        <g transform="translate(0 .446)">
            <mask id="b" fill="#fff">
                <use xlink:href="#a"/>
            </mask>
            <path fill="#3200CE" d="M3.091 2.974v8.444h5.394c2.762 0 3.782-2.102 3.782-4.205 0-2.07-1.02-4.239-3.65-4.239H3.09zm2.894 11.303H3.06v7.096c0 .854-.658 1.545-1.546 1.545-.855 0-1.513-.69-1.513-1.545V1.43C0 .708.592.116 1.283.116h7.432c4.769 0 6.71 3.549 6.71 7.097 0 3.351-1.678 6.604-5.92 6.965l4.44 6.308c.493.723.361 1.643-.362 2.136-.691.525-1.612.328-2.138-.395l-5.46-7.95z" mask="url(#b)"/>
        </g>
        <path fill="#3200CE" d="M29.697 14.328c-.362-2.563-2.203-4.107-4.67-4.107-2.532 0-4.506 1.544-4.867 4.107h9.537zm1.776 2.333H20.16c.361 2.562 2.367 4.172 4.966 4.172 1.842 0 2.86-.46 3.913-1.61.56-.624 1.415-.821 2.007-.394.591.46.723 1.347.263 1.873-1.48 1.905-3.782 2.825-6.282 2.825-4.374 0-7.86-3.187-7.86-8.05 0-4.862 3.486-7.95 7.86-7.95 4.374 0 7.63 3.088 7.63 7.95 0 .69-.56 1.184-1.184 1.184zM40.842 20.899c1.546 0 2.697-.821 2.697-2.037 0-1.117-.888-1.676-2.04-1.938l-2.104-.493c-2.598-.69-4.144-1.972-4.144-4.403 0-2.53 2.27-4.501 5.36-4.501 2.007 0 3.947.723 4.836 2.497.131.23.164.493.164.69 0 .985-.954 1.347-1.414 1.347-.428 0-.757-.23-1.086-.657-.69-.92-1.48-1.281-2.433-1.281-1.447 0-2.4.854-2.4 2.004 0 .985.953 1.544 1.94 1.774l2.269.558c3.19.789 3.979 2.727 3.979 4.469 0 2.858-2.763 4.6-5.953 4.6-2.368 0-4.802-1.315-5.525-3.68a2.593 2.593 0 0 1-.065-.46c0-.789.756-1.183 1.446-1.183.526 0 1.053.263 1.283.854.428 1.117 1.644 1.84 3.19 1.84"/>
        <g transform="translate(48.182 .147)">
            <mask id="d" fill="#fff">
                <use xlink:href="#c"/>
            </mask>
            <path fill="#3200CE" d="M11.467 20.424c4.77 0 8.42-3.844 8.42-8.64 0-4.798-3.65-8.675-8.42-8.675-4.735 0-8.386 3.877-8.386 8.674s3.65 8.64 8.386 8.64m0-20.27c6.48 0 11.511 5.19 11.511 11.63 0 6.406-5.032 11.598-11.51 11.598C5.021 23.38.022 18.189.022 11.783c0-6.44 4.999-11.63 11.444-11.63" mask="url(#d)"/>
        </g>
        <g transform="translate(56.861 14.497)">
            <mask id="f" fill="#fff">
                <use xlink:href="#e"/>
            </mask>
            <path fill="#FFD524" d="M12.567 14.35C5.644 14.35.012 8.724.012 1.808a1.645 1.645 0 0 1 3.292 0c0 5.102 4.155 9.254 9.263 9.254s9.264-4.152 9.264-9.254a1.645 1.645 0 0 1 3.292 0c0 6.916-5.633 12.542-12.556 12.542" mask="url(#f)"/>
        </g>
        <path fill="#FFD524" d="M65.388 10.047a1.967 1.967 0 0 1-1.968 1.967 1.967 1.967 0 1 1 1.968-1.967M77.406 10.047a1.967 1.967 0 0 1-1.969 1.967 1.967 1.967 0 1 1 0-3.933c1.088 0 1.969.88 1.969 1.966"/>
    </g>
</svg>
